<!-- <?xml version="1.0" encoding="UTF-8" standalone="no"?>
<!DOCTYPE svg PUBLIC "-//W3C//DTD SVG 1.1//EN" "http://www.w3.org/Graphics/SVG/1.1/DTD/svg11.dtd"> -->
<svg xmlns="http://www.w3.org/2000/svg" version="1.1" viewBox="0.00 0.00 1448.00 1448.00">
<g stroke-width="2.00" fill="none" stroke-linecap="butt">
<path stroke="#808080" vector-effect="non-scaling-stroke" d="
  M 1249.74 127.24
  A 51.52 51.52 0.0 0 0 1198.22 75.72
  L 251.26 75.72
  A 51.52 51.52 0.0 0 0 199.74 127.24
  L 199.74 1325.06
  A 51.52 51.52 0.0 0 0 251.26 1376.58
  L 1198.22 1376.58
  A 51.52 51.52 0.0 0 0 1249.74 1325.06
  L 1249.74 127.24"
/>
<path stroke="#808080" vector-effect="non-scaling-stroke" d="
  M 243.95 106.49
  C 234.83 109.97 229.25 118.06 229.25 127.75
  Q 229.28 726.25 229.36 1324.75
  C 229.37 1338.14 239.54 1347.22 252.76 1347.22
  Q 481.20 1347.23 709.48 1347.22
  A 0.50 0.50 0.0 0 0 709.98 1346.72
  L 709.98 105.74
  A 0.48 0.48 0.0 0 0 709.50 105.26
  Q 477.53 105.25 254.44 105.20
  Q 247.35 105.20 243.95 106.49"
/>
<path stroke="#808080" vector-effect="non-scaling-stroke" d="
  M 1218.88 119.63
  C 1215.62 111.42 1207.76 105.25 1198.72 105.25
  Q 969.91 105.24 740.04 105.25
  Q 739.50 105.25 739.50 105.79
  L 739.50 1346.37
  A 0.84 0.83 -0.0 0 0 740.34 1347.20
  Q 969.83 1347.24 1195.29 1347.27
  C 1202.16 1347.28 1208.06 1345.88 1213.05 1341.31
  Q 1220.24 1334.73 1220.24 1324.49
  Q 1220.24 729.46 1220.26 134.16
  Q 1220.26 123.10 1218.88 119.63"
/>
<path stroke="#808080" vector-effect="non-scaling-stroke" d="
  M 658.37 349.76
  A 188.72 188.72 0.0 0 0 469.65 161.04
  A 188.72 188.72 0.0 0 0 280.93 349.76
  A 188.72 188.72 0.0 0 0 469.65 538.48
  A 188.72 188.72 0.0 0 0 658.37 349.76"
/>
<path stroke="#808080" vector-effect="non-scaling-stroke" d="
  M 680.13 592.17
  A 14.67 14.67 0.0 0 0 665.46 577.50
  L 290.56 577.50
  A 14.67 14.67 0.0 0 0 275.89 592.17
  L 275.89 592.41
  A 14.67 14.67 0.0 0 0 290.56 607.08
  L 665.46 607.08
  A 14.67 14.67 0.0 0 0 680.13 592.41
  L 680.13 592.17"
/>
<path stroke="#808080" vector-effect="non-scaling-stroke" d="
  M 620.55 660.79
  A 14.61 14.61 0.0 0 0 605.94 646.18
  L 290.52 646.18
  A 14.61 14.61 0.0 0 0 275.91 660.79
  L 275.91 661.07
  A 14.61 14.61 0.0 0 0 290.52 675.68
  L 605.94 675.68
  A 14.61 14.61 0.0 0 0 620.55 661.07
  L 620.55 660.79"
/>
<path stroke="#808080" vector-effect="non-scaling-stroke" d="
  M 570.48 729.33
  A 14.59 14.59 0.0 0 0 555.89 714.74
  L 290.51 714.74
  A 14.59 14.59 0.0 0 0 275.92 729.33
  L 275.92 729.67
  A 14.59 14.59 0.0 0 0 290.51 744.26
  L 555.89 744.26
  A 14.59 14.59 0.0 0 0 570.48 729.67
  L 570.48 729.33"
/>
<path stroke="#808080" vector-effect="non-scaling-stroke" d="
  M 264.07 849.24
  C 250.88 880.14 264.98 915.77 295.39 929.47
  Q 307.52 934.94 318.81 934.94
  Q 465.45 934.88 609.70 935.01
  Q 623.05 935.02 628.96 934.06
  Q 647.47 931.04 661.50 917.44
  C 688.32 891.44 685.71 847.85 656.34 824.89
  Q 639.59 811.79 617.58 811.80
  Q 476.48 811.89 328.92 811.77
  Q 316.26 811.75 310.54 812.70
  C 289.91 816.12 272.31 829.95 264.07 849.24"
/>
<path stroke="#808080" vector-effect="non-scaling-stroke" d="
  M 298.26 1118.11
  Q 308.95 1122.44 322.77 1122.43
  Q 466.66 1122.30 616.93 1122.40
  Q 645.36 1122.42 664.01 1102.22
  C 696.40 1067.15 677.20 1009.59 630.66 1000.41
  Q 624.22 999.14 614.20 999.15
  Q 464.38 999.23 323.49 999.16
  Q 314.75 999.16 308.31 1000.49
  Q 287.91 1004.74 274.23 1020.52
  C 246.33 1052.71 258.57 1102.04 298.26 1118.11"
/>
<path stroke="#808080" vector-effect="non-scaling-stroke" d="
  M 375.74 1201.37
  A 14.88 14.88 0.0 0 0 360.86 1186.49
  L 287.40 1186.49
  A 14.88 14.88 0.0 0 0 272.52 1201.37
  L 272.52 1276.51
  A 14.88 14.88 0.0 0 0 287.40 1291.39
  L 360.86 1291.39
  A 14.88 14.88 0.0 0 0 375.74 1276.51
  L 375.74 1201.37"
/>
<path stroke="#808080" vector-effect="non-scaling-stroke" d="
  M 521.1542 1201.1901
  A 14.79 14.79 0.0 0 0 506.3384 1186.4259
  L 432.7985 1186.5543
  A 14.79 14.79 0.0 0 0 418.0343 1201.3700
  L 418.1658 1276.6899
  A 14.79 14.79 0.0 0 0 432.9816 1291.4541
  L 506.5215 1291.3257
  A 14.79 14.79 0.0 0 0 521.2857 1276.5100
  L 521.1542 1201.1901"
/>
<path stroke="#808080" vector-effect="non-scaling-stroke" d="
  M 666.77 1201.35
  A 14.86 14.86 0.0 0 0 651.91 1186.49
  L 578.43 1186.49
  A 14.86 14.86 0.0 0 0 563.57 1201.35
  L 563.57 1276.53
  A 14.86 14.86 0.0 0 0 578.43 1291.39
  L 651.91 1291.39
  A 14.86 14.86 0.0 0 0 666.77 1276.53
  L 666.77 1201.35"
/>
<path stroke="#808080" vector-effect="non-scaling-stroke" d="
  M 883.51 402.25
  C 811.32 385.52 777.41 301.92 818.07 239.33
  C 853.83 184.27 931.22 174.43 979.98 218.36
  C 984.95 222.84 988.03 225.17 994.40 224.46
  C 1004.25 223.35 1010.08 212.41 1005.86 203.60
  Q 1004.28 200.29 1000.10 196.61
  Q 972.22 172.03 937.68 164.58
  C 863.37 148.55 790.77 194.21 774.33 268.57
  C 763.31 318.35 781.26 371.32 821.15 403.75
  C 841.44 420.25 866.39 430.90 892.41 433.61
  Q 942.71 438.84 984.32 411.48
  Q 991.60 406.68 1000.57 398.76
  Q 1004.72 395.09 1006.16 391.55
  C 1010.95 379.77 999.40 367.81 987.60 372.09
  Q 984.80 373.10 981.43 376.17
  C 954.74 400.47 919.09 410.49 883.51 402.25"
/>
<path stroke="#808080" vector-effect="non-scaling-stroke" d="
  M 1091.60 389.37
  Q 1057.90 329.70 1023.06 267.80
  C 1017.37 257.69 1003.57 257.16 997.48 266.82
  C 992.96 274.01 995.74 279.56 999.83 286.81
  Q 1039.48 356.97 1076.24 422.26
  Q 1079.68 428.37 1080.63 429.52
  C 1085.88 435.84 1095.28 436.47 1101.59 431.14
  C 1104.48 428.69 1106.25 424.81 1108.15 421.42
  Q 1147.00 352.42 1186.43 282.46
  C 1194.41 268.30 1178.83 253.59 1165.34 262.65
  Q 1162.60 264.50 1159.08 270.77
  Q 1125.44 330.68 1092.26 389.37
  Q 1091.93 389.95 1091.60 389.37"
/>
<path stroke="#808080" vector-effect="non-scaling-stroke" d="
  M 1145.19 511.81
  A 14.60 14.60 0.0 0 0 1130.59 497.21
  L 829.17 497.21
  A 14.60 14.60 0.0 0 0 814.57 511.81
  L 814.57 512.11
  A 14.60 14.60 0.0 0 0 829.17 526.71
  L 1130.59 526.71
  A 14.60 14.60 0.0 0 0 1145.19 512.11
  L 1145.19 511.81"
/>
<path stroke="#808080" vector-effect="non-scaling-stroke" d="
  M 966.6804 588.1927
  A 14.49 14.49 0.0 0 0 952.2157 573.6774
  L 829.1559 573.4626
  A 14.49 14.49 0.0 0 0 814.6406 587.9273
  L 814.6396 588.5273
  A 14.49 14.49 0.0 0 0 829.1043 603.0426
  L 952.1641 603.2574
  A 14.49 14.49 0.0 0 0 966.6794 588.7927
  L 966.6804 588.1927"
/>
<path stroke="#808080" vector-effect="non-scaling-stroke" d="
  M 1145.19 664.66
  A 14.61 14.61 0.0 0 0 1130.58 650.05
  L 829.18 650.05
  A 14.61 14.61 0.0 0 0 814.57 664.66
  L 814.57 664.96
  A 14.61 14.61 0.0 0 0 829.18 679.57
  L 1130.58 679.57
  A 14.61 14.61 0.0 0 0 1145.19 664.96
  L 1145.19 664.66"
/>
<path stroke="#808080" vector-effect="non-scaling-stroke" d="
  M 1145.16 741.15
  A 14.54 14.54 0.0 0 0 1130.62 726.61
  L 941.22 726.61
  A 14.54 14.54 0.0 0 0 926.68 741.15
  L 926.68 741.57
  A 14.54 14.54 0.0 0 0 941.22 756.11
  L 1130.62 756.11
  A 14.54 14.54 0.0 0 0 1145.16 741.57
  L 1145.16 741.15"
/>
<path stroke="#808080" vector-effect="non-scaling-stroke" d="
  M 1145.19 817.69
  A 14.60 14.60 0.0 0 0 1130.59 803.09
  L 829.19 803.09
  A 14.60 14.60 0.0 0 0 814.59 817.69
  L 814.59 817.99
  A 14.60 14.60 0.0 0 0 829.19 832.59
  L 1130.59 832.59
  A 14.60 14.60 0.0 0 0 1145.19 817.99
  L 1145.19 817.69"
/>
<path stroke="#808080" vector-effect="non-scaling-stroke" d="
  M 1081.54 894.12
  A 14.61 14.61 0.0 0 0 1066.93 879.51
  L 829.19 879.51
  A 14.61 14.61 0.0 0 0 814.58 894.12
  L 814.58 894.48
  A 14.61 14.61 0.0 0 0 829.19 909.09
  L 1066.93 909.09
  A 14.61 14.61 0.0 0 0 1081.54 894.48
  L 1081.54 894.12"
/>
<path stroke="#808080" vector-effect="non-scaling-stroke" d="
  M 1145.19 970.59
  A 14.61 14.61 0.0 0 0 1130.58 955.98
  L 829.18 955.98
  A 14.61 14.61 0.0 0 0 814.57 970.59
  L 814.57 970.89
  A 14.61 14.61 0.0 0 0 829.18 985.50
  L 1130.58 985.50
  A 14.61 14.61 0.0 0 0 1145.19 970.89
  L 1145.19 970.59"
/>
<path stroke="#808080" vector-effect="non-scaling-stroke" d="
  M 1145.1404 1047.0374
  A 14.45 14.45 0.0 0 0 1130.7157 1032.5622
  L 1013.6159 1032.3578
  A 14.45 14.45 0.0 0 0 999.1407 1046.7826
  L 999.1396 1047.4026
  A 14.45 14.45 0.0 0 0 1013.5643 1061.8778
  L 1130.6641 1062.0822
  A 14.45 14.45 0.0 0 0 1145.1393 1047.6574
  L 1145.1404 1047.0374"
/>
<path stroke="#808080" vector-effect="non-scaling-stroke" d="
  M 1145.18 1123.52
  A 14.66 14.66 0.0 0 0 1130.52 1108.86
  L 829.24 1108.86
  A 14.66 14.66 0.0 0 0 814.58 1123.52
  L 814.58 1123.80
  A 14.66 14.66 0.0 0 0 829.24 1138.46
  L 1130.52 1138.46
  A 14.66 14.66 0.0 0 0 1145.18 1123.80
  L 1145.18 1123.52"
/>
<path stroke="#808080" vector-effect="non-scaling-stroke" d="
  M 1021.45 1199.89
  A 14.54 14.54 0.0 0 0 1006.91 1185.35
  L 829.17 1185.35
  A 14.54 14.54 0.0 0 0 814.63 1199.89
  L 814.63 1200.35
  A 14.54 14.54 0.0 0 0 829.17 1214.89
  L 1006.91 1214.89
  A 14.54 14.54 0.0 0 0 1021.45 1200.35
  L 1021.45 1199.89"
/>
<path stroke="#808080" vector-effect="non-scaling-stroke" d="
  M 1145.18 1276.47
  A 14.64 14.64 0.0 0 0 1130.54 1261.83
  L 829.24 1261.83
  A 14.64 14.64 0.0 0 0 814.60 1276.47
  L 814.60 1276.75
  A 14.64 14.64 0.0 0 0 829.24 1291.39
  L 1130.54 1291.39
  A 14.64 14.64 0.0 0 0 1145.18 1276.75
  L 1145.18 1276.47"
/>
<path stroke="#808080" vector-effect="non-scaling-stroke" d="
  M 546.19 210.18
  C 519.91 195.46 489.10 188.94 459.41 190.90
  C 374.80 196.48 308.34 268.12 310.48 353.12
  Q 311.76 403.70 342.06 444.93
  A 0.30 0.30 0.0 0 0 342.59 444.82
  C 352.00 404.13 379.54 371.00 417.86 354.10
  A 0.28 0.27 54.0 0 0 417.93 353.64
  C 374.79 315.90 384.11 247.25 435.49 222.37
  C 470.39 205.47 512.46 216.75 534.59 248.53
  C 557.89 282.02 551.90 326.57 521.48 353.55
  A 0.39 0.38 -54.0 0 0 521.58 354.19
  C 559.42 370.91 587.42 404.44 596.56 444.95
  A 0.31 0.31 0.0 0 0 597.12 445.07
  C 655.48 366.54 630.55 257.43 546.19 210.18"
/>
<path stroke="#808080" vector-effect="non-scaling-stroke" d="
  M 519.27 293.71
  A 49.61 49.61 0.0 0 0 469.66 244.10
  A 49.61 49.61 0.0 0 0 420.05 293.71
  A 49.61 49.61 0.0 0 0 469.66 343.32
  A 49.61 49.61 0.0 0 0 519.27 293.71"
/>
<path stroke="#808080" vector-effect="non-scaling-stroke" d="
  M 509.83 381.31
  C 468.68 363.33 420.74 374.92 392.22 409.32
  Q 370.12 435.97 368.90 471.66
  Q 368.85 473.01 369.95 473.87
  Q 403.85 500.53 444.48 506.95
  C 489.42 514.05 534.69 501.96 570.00 473.24
  Q 570.44 472.88 570.42 472.31
  Q 568.64 426.05 534.26 396.47
  Q 523.69 387.37 509.83 381.31"
/>
<path stroke="#808080" vector-effect="non-scaling-stroke" d="
  M 650.3387 872.4445
  A 31.46 31.46 0.0 0 0 618.8238 841.0395
  L 320.2443 841.5606
  A 31.46 31.46 0.0 0 0 288.8392 873.0755
  L 288.8413 874.2755
  A 31.46 31.46 0.0 0 0 320.3562 905.6805
  L 618.9357 905.1594
  A 31.46 31.46 0.0 0 0 650.3408 873.6445
  L 650.3387 872.4445"
/>
<path stroke="#808080" vector-effect="non-scaling-stroke" d="
  M 650.41 1060.16
  A 31.40 31.40 0.0 0 0 619.01 1028.76
  L 320.19 1028.76
  A 31.40 31.40 0.0 0 0 288.79 1060.16
  L 288.79 1061.34
  A 31.40 31.40 0.0 0 0 320.19 1092.74
  L 619.01 1092.74
  A 31.40 31.40 0.0 0 0 650.41 1061.34
  L 650.41 1060.16"
/>
<path stroke="#808080" vector-effect="non-scaling-stroke" d="
  M 346.2110 1216.5615
  A 0.60 0.60 0.0 0 0 345.6100 1215.9625
  L 302.6500 1216.0375
  A 0.60 0.60 0.0 0 0 302.0511 1216.6386
  L 302.1290 1261.2785
  A 0.60 0.60 0.0 0 0 302.7300 1261.8775
  L 345.6900 1261.8025
  A 0.60 0.60 0.0 0 0 346.2889 1261.2014
  L 346.2110 1216.5615"
/>
<path stroke="#808080" vector-effect="non-scaling-stroke" d="
  M 491.59 1216.29
  A 0.27 0.27 0.0 0 0 491.32 1216.02
  L 447.88 1216.02
  A 0.27 0.27 0.0 0 0 447.61 1216.29
  L 447.61 1261.57
  A 0.27 0.27 0.0 0 0 447.88 1261.84
  L 491.32 1261.84
  A 0.27 0.27 0.0 0 0 491.59 1261.57
  L 491.59 1216.29"
/>
<path stroke="#808080" vector-effect="non-scaling-stroke" d="
  M 637.24 1216.27
  A 0.26 0.26 0.0 0 0 636.98 1216.01
  L 593.44 1216.01
  A 0.26 0.26 0.0 0 0 593.18 1216.27
  L 593.18 1261.55
  A 0.26 0.26 0.0 0 0 593.44 1261.81
  L 636.98 1261.81
  A 0.26 0.26 0.0 0 0 637.24 1261.55
  L 637.24 1216.27"
/>
</g>
<path fill="#ffffff" d="
  M 0.00 0.00
  L 1448.00 0.00
  L 1448.00 1448.00
  L 0.00 1448.00
  L 0.00 0.00
  Z
  M 1249.74 127.24
  A 51.52 51.52 0.0 0 0 1198.22 75.72
  L 251.26 75.72
  A 51.52 51.52 0.0 0 0 199.74 127.24
  L 199.74 1325.06
  A 51.52 51.52 0.0 0 0 251.26 1376.58
  L 1198.22 1376.58
  A 51.52 51.52 0.0 0 0 1249.74 1325.06
  L 1249.74 127.24
  Z"
/>
<path fill="#000000" d="
  M 1249.74 1325.06
  A 51.52 51.52 0.0 0 1 1198.22 1376.58
  L 251.26 1376.58
  A 51.52 51.52 0.0 0 1 199.74 1325.06
  L 199.74 127.24
  A 51.52 51.52 0.0 0 1 251.26 75.72
  L 1198.22 75.72
  A 51.52 51.52 0.0 0 1 1249.74 127.24
  L 1249.74 1325.06
  Z
  M 243.95 106.49
  C 234.83 109.97 229.25 118.06 229.25 127.75
  Q 229.28 726.25 229.36 1324.75
  C 229.37 1338.14 239.54 1347.22 252.76 1347.22
  Q 481.20 1347.23 709.48 1347.22
  A 0.50 0.50 0.0 0 0 709.98 1346.72
  L 709.98 105.74
  A 0.48 0.48 0.0 0 0 709.50 105.26
  Q 477.53 105.25 254.44 105.20
  Q 247.35 105.20 243.95 106.49
  Z
  M 1218.88 119.63
  C 1215.62 111.42 1207.76 105.25 1198.72 105.25
  Q 969.91 105.24 740.04 105.25
  Q 739.50 105.25 739.50 105.79
  L 739.50 1346.37
  A 0.84 0.83 -0.0 0 0 740.34 1347.20
  Q 969.83 1347.24 1195.29 1347.27
  C 1202.16 1347.28 1208.06 1345.88 1213.05 1341.31
  Q 1220.24 1334.73 1220.24 1324.49
  Q 1220.24 729.46 1220.26 134.16
  Q 1220.26 123.10 1218.88 119.63
  Z"
/>
<path fill="#ffffff" d="
  M 229.25 127.75
  C 229.25 118.06 234.83 109.97 243.95 106.49
  Q 247.35 105.20 254.44 105.20
  Q 477.53 105.25 709.50 105.26
  A 0.48 0.48 0.0 0 1 709.98 105.74
  L 709.98 1346.72
  A 0.50 0.50 0.0 0 1 709.48 1347.22
  Q 481.20 1347.23 252.76 1347.22
  C 239.54 1347.22 229.37 1338.14 229.36 1324.75
  Q 229.28 726.25 229.25 127.75
  Z
  M 658.37 349.76
  A 188.72 188.72 0.0 0 0 469.65 161.04
  A 188.72 188.72 0.0 0 0 280.93 349.76
  A 188.72 188.72 0.0 0 0 469.65 538.48
  A 188.72 188.72 0.0 0 0 658.37 349.76
  Z
  M 680.13 592.17
  A 14.67 14.67 0.0 0 0 665.46 577.50
  L 290.56 577.50
  A 14.67 14.67 0.0 0 0 275.89 592.17
  L 275.89 592.41
  A 14.67 14.67 0.0 0 0 290.56 607.08
  L 665.46 607.08
  A 14.67 14.67 0.0 0 0 680.13 592.41
  L 680.13 592.17
  Z
  M 620.55 660.79
  A 14.61 14.61 0.0 0 0 605.94 646.18
  L 290.52 646.18
  A 14.61 14.61 0.0 0 0 275.91 660.79
  L 275.91 661.07
  A 14.61 14.61 0.0 0 0 290.52 675.68
  L 605.94 675.68
  A 14.61 14.61 0.0 0 0 620.55 661.07
  L 620.55 660.79
  Z
  M 570.48 729.33
  A 14.59 14.59 0.0 0 0 555.89 714.74
  L 290.51 714.74
  A 14.59 14.59 0.0 0 0 275.92 729.33
  L 275.92 729.67
  A 14.59 14.59 0.0 0 0 290.51 744.26
  L 555.89 744.26
  A 14.59 14.59 0.0 0 0 570.48 729.67
  L 570.48 729.33
  Z
  M 264.07 849.24
  C 250.88 880.14 264.98 915.77 295.39 929.47
  Q 307.52 934.94 318.81 934.94
  Q 465.45 934.88 609.70 935.01
  Q 623.05 935.02 628.96 934.06
  Q 647.47 931.04 661.50 917.44
  C 688.32 891.44 685.71 847.85 656.34 824.89
  Q 639.59 811.79 617.58 811.80
  Q 476.48 811.89 328.92 811.77
  Q 316.26 811.75 310.54 812.70
  C 289.91 816.12 272.31 829.95 264.07 849.24
  Z
  M 298.26 1118.11
  Q 308.95 1122.44 322.77 1122.43
  Q 466.66 1122.30 616.93 1122.40
  Q 645.36 1122.42 664.01 1102.22
  C 696.40 1067.15 677.20 1009.59 630.66 1000.41
  Q 624.22 999.14 614.20 999.15
  Q 464.38 999.23 323.49 999.16
  Q 314.75 999.16 308.31 1000.49
  Q 287.91 1004.74 274.23 1020.52
  C 246.33 1052.71 258.57 1102.04 298.26 1118.11
  Z
  M 375.74 1201.37
  A 14.88 14.88 0.0 0 0 360.86 1186.49
  L 287.40 1186.49
  A 14.88 14.88 0.0 0 0 272.52 1201.37
  L 272.52 1276.51
  A 14.88 14.88 0.0 0 0 287.40 1291.39
  L 360.86 1291.39
  A 14.88 14.88 0.0 0 0 375.74 1276.51
  L 375.74 1201.37
  Z
  M 521.1542 1201.1901
  A 14.79 14.79 0.0 0 0 506.3384 1186.4259
  L 432.7985 1186.5543
  A 14.79 14.79 0.0 0 0 418.0343 1201.3700
  L 418.1658 1276.6899
  A 14.79 14.79 0.0 0 0 432.9816 1291.4541
  L 506.5215 1291.3257
  A 14.79 14.79 0.0 0 0 521.2857 1276.5100
  L 521.1542 1201.1901
  Z
  M 666.77 1201.35
  A 14.86 14.86 0.0 0 0 651.91 1186.49
  L 578.43 1186.49
  A 14.86 14.86 0.0 0 0 563.57 1201.35
  L 563.57 1276.53
  A 14.86 14.86 0.0 0 0 578.43 1291.39
  L 651.91 1291.39
  A 14.86 14.86 0.0 0 0 666.77 1276.53
  L 666.77 1201.35
  Z"
/>
<path fill="#ffffff" d="
  M 1198.72 105.25
  C 1207.76 105.25 1215.62 111.42 1218.88 119.63
  Q 1220.26 123.10 1220.26 134.16
  Q 1220.24 729.46 1220.24 1324.49
  Q 1220.24 1334.73 1213.05 1341.31
  C 1208.06 1345.88 1202.16 1347.28 1195.29 1347.27
  Q 969.83 1347.24 740.34 1347.20
  A 0.84 0.83 -0.0 0 1 739.50 1346.37
  L 739.50 105.79
  Q 739.50 105.25 740.04 105.25
  Q 969.91 105.24 1198.72 105.25
  Z
  M 883.51 402.25
  C 811.32 385.52 777.41 301.92 818.07 239.33
  C 853.83 184.27 931.22 174.43 979.98 218.36
  C 984.95 222.84 988.03 225.17 994.40 224.46
  C 1004.25 223.35 1010.08 212.41 1005.86 203.60
  Q 1004.28 200.29 1000.10 196.61
  Q 972.22 172.03 937.68 164.58
  C 863.37 148.55 790.77 194.21 774.33 268.57
  C 763.31 318.35 781.26 371.32 821.15 403.75
  C 841.44 420.25 866.39 430.90 892.41 433.61
  Q 942.71 438.84 984.32 411.48
  Q 991.60 406.68 1000.57 398.76
  Q 1004.72 395.09 1006.16 391.55
  C 1010.95 379.77 999.40 367.81 987.60 372.09
  Q 984.80 373.10 981.43 376.17
  C 954.74 400.47 919.09 410.49 883.51 402.25
  Z
  M 1091.60 389.37
  Q 1057.90 329.70 1023.06 267.80
  C 1017.37 257.69 1003.57 257.16 997.48 266.82
  C 992.96 274.01 995.74 279.56 999.83 286.81
  Q 1039.48 356.97 1076.24 422.26
  Q 1079.68 428.37 1080.63 429.52
  C 1085.88 435.84 1095.28 436.47 1101.59 431.14
  C 1104.48 428.69 1106.25 424.81 1108.15 421.42
  Q 1147.00 352.42 1186.43 282.46
  C 1194.41 268.30 1178.83 253.59 1165.34 262.65
  Q 1162.60 264.50 1159.08 270.77
  Q 1125.44 330.68 1092.26 389.37
  Q 1091.93 389.95 1091.60 389.37
  Z
  M 1145.19 511.81
  A 14.60 14.60 0.0 0 0 1130.59 497.21
  L 829.17 497.21
  A 14.60 14.60 0.0 0 0 814.57 511.81
  L 814.57 512.11
  A 14.60 14.60 0.0 0 0 829.17 526.71
  L 1130.59 526.71
  A 14.60 14.60 0.0 0 0 1145.19 512.11
  L 1145.19 511.81
  Z
  M 966.6804 588.1927
  A 14.49 14.49 0.0 0 0 952.2157 573.6774
  L 829.1559 573.4626
  A 14.49 14.49 0.0 0 0 814.6406 587.9273
  L 814.6396 588.5273
  A 14.49 14.49 0.0 0 0 829.1043 603.0426
  L 952.1641 603.2574
  A 14.49 14.49 0.0 0 0 966.6794 588.7927
  L 966.6804 588.1927
  Z
  M 1145.19 664.66
  A 14.61 14.61 0.0 0 0 1130.58 650.05
  L 829.18 650.05
  A 14.61 14.61 0.0 0 0 814.57 664.66
  L 814.57 664.96
  A 14.61 14.61 0.0 0 0 829.18 679.57
  L 1130.58 679.57
  A 14.61 14.61 0.0 0 0 1145.19 664.96
  L 1145.19 664.66
  Z
  M 1145.16 741.15
  A 14.54 14.54 0.0 0 0 1130.62 726.61
  L 941.22 726.61
  A 14.54 14.54 0.0 0 0 926.68 741.15
  L 926.68 741.57
  A 14.54 14.54 0.0 0 0 941.22 756.11
  L 1130.62 756.11
  A 14.54 14.54 0.0 0 0 1145.16 741.57
  L 1145.16 741.15
  Z
  M 1145.19 817.69
  A 14.60 14.60 0.0 0 0 1130.59 803.09
  L 829.19 803.09
  A 14.60 14.60 0.0 0 0 814.59 817.69
  L 814.59 817.99
  A 14.60 14.60 0.0 0 0 829.19 832.59
  L 1130.59 832.59
  A 14.60 14.60 0.0 0 0 1145.19 817.99
  L 1145.19 817.69
  Z
  M 1081.54 894.12
  A 14.61 14.61 0.0 0 0 1066.93 879.51
  L 829.19 879.51
  A 14.61 14.61 0.0 0 0 814.58 894.12
  L 814.58 894.48
  A 14.61 14.61 0.0 0 0 829.19 909.09
  L 1066.93 909.09
  A 14.61 14.61 0.0 0 0 1081.54 894.48
  L 1081.54 894.12
  Z
  M 1145.19 970.59
  A 14.61 14.61 0.0 0 0 1130.58 955.98
  L 829.18 955.98
  A 14.61 14.61 0.0 0 0 814.57 970.59
  L 814.57 970.89
  A 14.61 14.61 0.0 0 0 829.18 985.50
  L 1130.58 985.50
  A 14.61 14.61 0.0 0 0 1145.19 970.89
  L 1145.19 970.59
  Z
  M 1145.1404 1047.0374
  A 14.45 14.45 0.0 0 0 1130.7157 1032.5622
  L 1013.6159 1032.3578
  A 14.45 14.45 0.0 0 0 999.1407 1046.7826
  L 999.1396 1047.4026
  A 14.45 14.45 0.0 0 0 1013.5643 1061.8778
  L 1130.6641 1062.0822
  A 14.45 14.45 0.0 0 0 1145.1393 1047.6574
  L 1145.1404 1047.0374
  Z
  M 1145.18 1123.52
  A 14.66 14.66 0.0 0 0 1130.52 1108.86
  L 829.24 1108.86
  A 14.66 14.66 0.0 0 0 814.58 1123.52
  L 814.58 1123.80
  A 14.66 14.66 0.0 0 0 829.24 1138.46
  L 1130.52 1138.46
  A 14.66 14.66 0.0 0 0 1145.18 1123.80
  L 1145.18 1123.52
  Z
  M 1021.45 1199.89
  A 14.54 14.54 0.0 0 0 1006.91 1185.35
  L 829.17 1185.35
  A 14.54 14.54 0.0 0 0 814.63 1199.89
  L 814.63 1200.35
  A 14.54 14.54 0.0 0 0 829.17 1214.89
  L 1006.91 1214.89
  A 14.54 14.54 0.0 0 0 1021.45 1200.35
  L 1021.45 1199.89
  Z
  M 1145.18 1276.47
  A 14.64 14.64 0.0 0 0 1130.54 1261.83
  L 829.24 1261.83
  A 14.64 14.64 0.0 0 0 814.60 1276.47
  L 814.60 1276.75
  A 14.64 14.64 0.0 0 0 829.24 1291.39
  L 1130.54 1291.39
  A 14.64 14.64 0.0 0 0 1145.18 1276.75
  L 1145.18 1276.47
  Z"
/>
<path fill="#000000" d="
  M 658.37 349.76
  A 188.72 188.72 0.0 0 1 469.65 538.48
  A 188.72 188.72 0.0 0 1 280.93 349.76
  A 188.72 188.72 0.0 0 1 469.65 161.04
  A 188.72 188.72 0.0 0 1 658.37 349.76
  Z
  M 546.19 210.18
  C 519.91 195.46 489.10 188.94 459.41 190.90
  C 374.80 196.48 308.34 268.12 310.48 353.12
  Q 311.76 403.70 342.06 444.93
  A 0.30 0.30 0.0 0 0 342.59 444.82
  C 352.00 404.13 379.54 371.00 417.86 354.10
  A 0.28 0.27 54.0 0 0 417.93 353.64
  C 374.79 315.90 384.11 247.25 435.49 222.37
  C 470.39 205.47 512.46 216.75 534.59 248.53
  C 557.89 282.02 551.90 326.57 521.48 353.55
  A 0.39 0.38 -54.0 0 0 521.58 354.19
  C 559.42 370.91 587.42 404.44 596.56 444.95
  A 0.31 0.31 0.0 0 0 597.12 445.07
  C 655.48 366.54 630.55 257.43 546.19 210.18
  Z
  M 519.27 293.71
  A 49.61 49.61 0.0 0 0 469.66 244.10
  A 49.61 49.61 0.0 0 0 420.05 293.71
  A 49.61 49.61 0.0 0 0 469.66 343.32
  A 49.61 49.61 0.0 0 0 519.27 293.71
  Z
  M 509.83 381.31
  C 468.68 363.33 420.74 374.92 392.22 409.32
  Q 370.12 435.97 368.90 471.66
  Q 368.85 473.01 369.95 473.87
  Q 403.85 500.53 444.48 506.95
  C 489.42 514.05 534.69 501.96 570.00 473.24
  Q 570.44 472.88 570.42 472.31
  Q 568.64 426.05 534.26 396.47
  Q 523.69 387.37 509.83 381.31
  Z"
/>
<path fill="#000000" d="
  M 818.07 239.33
  C 777.41 301.92 811.32 385.52 883.51 402.25
  C 919.09 410.49 954.74 400.47 981.43 376.17
  Q 984.80 373.10 987.60 372.09
  C 999.40 367.81 1010.95 379.77 1006.16 391.55
  Q 1004.72 395.09 1000.57 398.76
  Q 991.60 406.68 984.32 411.48
  Q 942.71 438.84 892.41 433.61
  C 866.39 430.90 841.44 420.25 821.15 403.75
  C 781.26 371.32 763.31 318.35 774.33 268.57
  C 790.77 194.21 863.37 148.55 937.68 164.58
  Q 972.22 172.03 1000.10 196.61
  Q 1004.28 200.29 1005.86 203.60
  C 1010.08 212.41 1004.25 223.35 994.40 224.46
  C 988.03 225.17 984.95 222.84 979.98 218.36
  C 931.22 174.43 853.83 184.27 818.07 239.33
  Z"
/>
<path fill="#ffffff" d="
  M 546.19 210.18
  C 630.55 257.43 655.48 366.54 597.12 445.07
  A 0.31 0.31 0.0 0 1 596.56 444.95
  C 587.42 404.44 559.42 370.91 521.58 354.19
  A 0.39 0.38 -54.0 0 1 521.48 353.55
  C 551.90 326.57 557.89 282.02 534.59 248.53
  C 512.46 216.75 470.39 205.47 435.49 222.37
  C 384.11 247.25 374.79 315.90 417.93 353.64
  A 0.28 0.27 54.0 0 1 417.86 354.10
  C 379.54 371.00 352.00 404.13 342.59 444.82
  A 0.30 0.30 0.0 0 1 342.06 444.93
  Q 311.76 403.70 310.48 353.12
  C 308.34 268.12 374.80 196.48 459.41 190.90
  C 489.10 188.94 519.91 195.46 546.19 210.18
  Z"
/>
<circle fill="#ffffff" cx="469.66" cy="293.71" r="49.61"/>
<path fill="#000000" d="
  M 1091.60 389.37
  Q 1091.93 389.95 1092.26 389.37
  Q 1125.44 330.68 1159.08 270.77
  Q 1162.60 264.50 1165.34 262.65
  C 1178.83 253.59 1194.41 268.30 1186.43 282.46
  Q 1147.00 352.42 1108.15 421.42
  C 1106.25 424.81 1104.48 428.69 1101.59 431.14
  C 1095.28 436.47 1085.88 435.84 1080.63 429.52
  Q 1079.68 428.37 1076.24 422.26
  Q 1039.48 356.97 999.83 286.81
  C 995.74 279.56 992.96 274.01 997.48 266.82
  C 1003.57 257.16 1017.37 257.69 1023.06 267.80
  Q 1057.90 329.70 1091.60 389.37
  Z"
/>
<path fill="#ffffff" d="
  M 509.83 381.31
  Q 523.69 387.37 534.26 396.47
  Q 568.64 426.05 570.42 472.31
  Q 570.44 472.88 570.00 473.24
  C 534.69 501.96 489.42 514.05 444.48 506.95
  Q 403.85 500.53 369.95 473.87
  Q 368.85 473.01 368.90 471.66
  Q 370.12 435.97 392.22 409.32
  C 420.74 374.92 468.68 363.33 509.83 381.31
  Z"
/>
<rect fill="#000000" x="814.57" y="497.21" width="330.62" height="29.50" rx="14.60"/>
<rect fill="#000000" x="-76.02" y="-14.79" transform="translate(890.66,588.36) rotate(0.1)" width="152.04" height="29.58" rx="14.49"/>
<rect fill="#000000" x="275.89" y="577.50" width="404.24" height="29.58" rx="14.67"/>
<rect fill="#000000" x="275.91" y="646.18" width="344.64" height="29.50" rx="14.61"/>
<rect fill="#000000" x="814.57" y="650.05" width="330.62" height="29.52" rx="14.61"/>
<rect fill="#000000" x="275.92" y="714.74" width="294.56" height="29.52" rx="14.59"/>
<rect fill="#000000" x="926.68" y="726.61" width="218.48" height="29.50" rx="14.54"/>
<rect fill="#000000" x="814.59" y="803.09" width="330.60" height="29.50" rx="14.60"/>
<path fill="#000000" d="
  M 264.07 849.24
  C 272.31 829.95 289.91 816.12 310.54 812.70
  Q 316.26 811.75 328.92 811.77
  Q 476.48 811.89 617.58 811.80
  Q 639.59 811.79 656.34 824.89
  C 685.71 847.85 688.32 891.44 661.50 917.44
  Q 647.47 931.04 628.96 934.06
  Q 623.05 935.02 609.70 935.01
  Q 465.45 934.88 318.81 934.94
  Q 307.52 934.94 295.39 929.47
  C 264.98 915.77 250.88 880.14 264.07 849.24
  Z
  M 650.3387 872.4445
  A 31.46 31.46 0.0 0 0 618.8238 841.0395
  L 320.2443 841.5606
  A 31.46 31.46 0.0 0 0 288.8392 873.0755
  L 288.8413 874.2755
  A 31.46 31.46 0.0 0 0 320.3562 905.6805
  L 618.9357 905.1594
  A 31.46 31.46 0.0 0 0 650.3408 873.6445
  L 650.3387 872.4445
  Z"
/>
<rect fill="#ffffff" x="-180.75" y="-32.06" transform="translate(469.59,873.36) rotate(-0.1)" width="361.50" height="64.12" rx="31.46"/>
<rect fill="#000000" x="814.58" y="879.51" width="266.96" height="29.58" rx="14.61"/>
<rect fill="#000000" x="814.57" y="955.98" width="330.62" height="29.52" rx="14.61"/>
<path fill="#000000" d="
  M 298.26 1118.11
  C 258.57 1102.04 246.33 1052.71 274.23 1020.52
  Q 287.91 1004.74 308.31 1000.49
  Q 314.75 999.16 323.49 999.16
  Q 464.38 999.23 614.20 999.15
  Q 624.22 999.14 630.66 1000.41
  C 677.20 1009.59 696.40 1067.15 664.01 1102.22
  Q 645.36 1122.42 616.93 1122.40
  Q 466.66 1122.30 322.77 1122.43
  Q 308.95 1122.44 298.26 1118.11
  Z
  M 650.41 1060.16
  A 31.40 31.40 0.0 0 0 619.01 1028.76
  L 320.19 1028.76
  A 31.40 31.40 0.0 0 0 288.79 1060.16
  L 288.79 1061.34
  A 31.40 31.40 0.0 0 0 320.19 1092.74
  L 619.01 1092.74
  A 31.40 31.40 0.0 0 0 650.41 1061.34
  L 650.41 1060.16
  Z"
/>
<rect fill="#ffffff" x="288.79" y="1028.76" width="361.62" height="63.98" rx="31.40"/>
<rect fill="#000000" x="-73.00" y="-14.76" transform="translate(1072.14,1047.22) rotate(0.1)" width="146.00" height="29.52" rx="14.45"/>
<rect fill="#000000" x="814.58" y="1108.86" width="330.60" height="29.60" rx="14.66"/>
<rect fill="#000000" x="814.63" y="1185.35" width="206.82" height="29.54" rx="14.54"/>
<path fill="#000000" d="
  M 375.74 1276.51
  A 14.88 14.88 0.0 0 1 360.86 1291.39
  L 287.40 1291.39
  A 14.88 14.88 0.0 0 1 272.52 1276.51
  L 272.52 1201.37
  A 14.88 14.88 0.0 0 1 287.40 1186.49
  L 360.86 1186.49
  A 14.88 14.88 0.0 0 1 375.74 1201.37
  L 375.74 1276.51
  Z
  M 346.2110 1216.5615
  A 0.60 0.60 0.0 0 0 345.6100 1215.9625
  L 302.6500 1216.0375
  A 0.60 0.60 0.0 0 0 302.0511 1216.6386
  L 302.1290 1261.2785
  A 0.60 0.60 0.0 0 0 302.7300 1261.8775
  L 345.6900 1261.8025
  A 0.60 0.60 0.0 0 0 346.2889 1261.2014
  L 346.2110 1216.5615
  Z"
/>
<path fill="#000000" d="
  M 521.2857 1276.5100
  A 14.79 14.79 0.0 0 1 506.5215 1291.3257
  L 432.9816 1291.4541
  A 14.79 14.79 0.0 0 1 418.1658 1276.6899
  L 418.0343 1201.3700
  A 14.79 14.79 0.0 0 1 432.7985 1186.5543
  L 506.3384 1186.4259
  A 14.79 14.79 0.0 0 1 521.1542 1201.1901
  L 521.2857 1276.5100
  Z
  M 491.59 1216.29
  A 0.27 0.27 0.0 0 0 491.32 1216.02
  L 447.88 1216.02
  A 0.27 0.27 0.0 0 0 447.61 1216.29
  L 447.61 1261.57
  A 0.27 0.27 0.0 0 0 447.88 1261.84
  L 491.32 1261.84
  A 0.27 0.27 0.0 0 0 491.59 1261.57
  L 491.59 1216.29
  Z"
/>
<path fill="#000000" d="
  M 666.77 1276.53
  A 14.86 14.86 0.0 0 1 651.91 1291.39
  L 578.43 1291.39
  A 14.86 14.86 0.0 0 1 563.57 1276.53
  L 563.57 1201.35
  A 14.86 14.86 0.0 0 1 578.43 1186.49
  L 651.91 1186.49
  A 14.86 14.86 0.0 0 1 666.77 1201.35
  L 666.77 1276.53
  Z
  M 637.24 1216.27
  A 0.26 0.26 0.0 0 0 636.98 1216.01
  L 593.44 1216.01
  A 0.26 0.26 0.0 0 0 593.18 1216.27
  L 593.18 1261.55
  A 0.26 0.26 0.0 0 0 593.44 1261.81
  L 636.98 1261.81
  A 0.26 0.26 0.0 0 0 637.24 1261.55
  L 637.24 1216.27
  Z"
/>
<rect fill="#ffffff" x="593.18" y="1216.01" width="44.06" height="45.80" rx="0.26"/>
<rect fill="#ffffff" x="-22.08" y="-22.92" transform="translate(324.17,1238.92) rotate(-0.1)" width="44.16" height="45.84" rx="0.60"/>
<rect fill="#ffffff" x="447.61" y="1216.02" width="43.98" height="45.82" rx="0.27"/>
<rect fill="#000000" x="814.60" y="1261.83" width="330.58" height="29.56" rx="14.64"/>
</svg>
